<?xml version="1.0" encoding="utf-8"?>
<!-- Generator: Adobe Illustrator 26.3.1, SVG Export Plug-In . SVG Version: 6.00 Build 0)  -->
<svg version="1.1" id="Layer_1" xmlns="http://www.w3.org/2000/svg" xmlns:xlink="http://www.w3.org/1999/xlink" x="0px" y="0px"
	 viewBox="0 0 878.74 878.74" style="enable-background:new 0 0 878.74 878.74;" xml:space="preserve">
<style type="text/css">
	.st0{fill:#FFFFFF;}
</style>
<g>
	<g>
		<path d="M878.28,439.37c0,157.91-0.28,315.83,0.45,473.74c0.07,15.08-2.77,17.86-17.84,17.83c-281.02-0.61-562.05-0.61-843.07,0
			C2.75,930.97-0.03,928.18,0,913.11C0.59,597.28,0.59,281.46,0-34.37C-0.03-49.44,2.75-52.23,17.83-52.2
			c281.02,0.61,562.05,0.61,843.07,0c15.07-0.03,17.91,2.75,17.84,17.83C878,123.54,878.28,281.46,878.28,439.37z M432.69,453.32
			c-7.13-39.93,6.8-71.71,34.83-98.33c4.14-3.93,8.14-9.28,14.53-7.85c6.91,1.54,6.3,8.18,7.19,13.72
			c5.75,35.57,11.9,71.09,17.41,106.7c2.14,13.83,7.16,25.54,21.26,29.71c6.16,1.82,19.01,0.48,15.62-7.71
			c-7.24-17.48,1.7-35.11-7.7-53.57c-21.54-42.27-15.72-85.84,10.56-125.19c10.19-15.26,18.77-28.55,9.65-47.39
			c-8.77-18.11,0.06-29.18,16.05-38.51c18.28-10.66,28.28-28.45,32.89-48.81c4.3-18.97-4.76-36.34-21.84-41.74
			c-17.36-5.48-32.05,0-40.86,15.68c-6.28,11.18-10.68,23.71-14.13,36.13c-4.52,16.27-12.62,16.81-25.28,8.85
			c-23.35-14.69-47.09-26.45-76.24-27.72c-56.6-2.45-108.52-27.94-163.97-37.12c-11.62-1.92-19.7-11.4-26.41-21.2
			c-5.33-7.78-13.42-10.42-22.45-11.17c-10.26-0.85-16.38,4.52-19.81,13.31c-4,10.24,1.53,13.85,10.37,19.15
			c46.22,27.67,96.19,45.64,147.92,58.79c18.26,4.64,36.06,9.99,53.76,16.31c13.17,4.7,14.69,12.27,8.32,23.03
			c-25.72,43.41-41.87,91.86-72.31,132.96c-20.3,27.41-31.63,57.47-14.61,92.77c13.35,27.68,13.17,58.83,15.57,89.09
			c1.63,20.49-5.72,32.47-26.53,37.51c-19.71,4.77-37.13,15.6-55.14,24.91c-21.46,11.1-42.06,26.14-68.97,20.3
			c-10.39-2.26-17.65,4.15-16.46,14.37c2.57,22.13-1.56,42.91-8.1,63.73c-1.45,4.62-3.55,11.79,2.93,14.53
			c1.82,0.77,7-4.27,9.48-7.53c21.93-28.78,42.87-57.71,79.66-70.69c37.37-13.18,76.26-15.76,114.75-21.59
			c10.22-1.55,16.56,2.34,18.19,13c6.72,43.87,28.27,85.57,18.72,131.86c-2.8,13.58,2.51,22.79,17.62,23.5
			c21.66,1.01,43.33,1.94,65,2.3c3.82,0.06,9.85-1.84,11.13-4.59c3.9-8.32-4.75-9.8-9.24-10.84
			c-47.42-10.94-57.98-46.84-60.55-88.27c-0.63-10.09,0.29-20.33-1.01-30.3c-4.67-35.75,19.29-67.44,16.35-101.49
			C447.93,519.98,428.2,488.38,432.69,453.32z M727.08,234.6c-4.11,0.43-14.04,1.33-23.93,2.54c-6.04,0.74-11.68,3.71-12.05,9.97
			c-0.35,5.91,4.13,10.37,9.8,12.68c29.54,12.05,59.55,19.99,91.45,9.65c5.46-1.77,11.74-4.17,10.88-10.91
			c-0.44-3.41-4.84-7.09-8.33-9.2C775.89,237.81,754.44,236.15,727.08,234.6z"/>
		<path class="st0" d="M432.69,453.32c-4.5,35.06,15.24,66.66,18.16,100.59c2.94,34.04-21.02,65.73-16.35,101.49
			c1.3,9.97,0.38,20.22,1.01,30.3c2.57,41.42,13.14,77.32,60.55,88.27c4.49,1.04,13.14,2.52,9.24,10.84
			c-1.29,2.74-7.31,4.65-11.13,4.59c-21.68-0.36-43.35-1.29-65-2.3c-15.11-0.7-20.43-9.91-17.62-23.5
			c9.54-46.29-12-87.99-18.72-131.86c-1.63-10.66-7.98-14.54-18.19-13c-38.49,5.82-77.38,8.4-114.75,21.59
			c-36.78,12.98-57.73,41.91-79.66,70.69c-2.48,3.26-7.66,8.3-9.48,7.53c-6.48-2.74-4.38-9.91-2.93-14.53
			c6.55-20.83,10.68-41.6,8.1-63.73c-1.19-10.22,6.06-16.63,16.46-14.37c26.91,5.84,47.51-9.2,68.97-20.3
			c18-9.31,35.43-20.14,55.14-24.91c20.81-5.03,28.15-17.02,26.53-37.51c-2.4-30.26-2.22-61.4-15.57-89.09
			c-17.02-35.3-5.69-65.36,14.61-92.77c30.45-41.1,46.59-89.55,72.31-132.96c6.37-10.75,4.86-18.33-8.32-23.03
			c-17.69-6.31-35.5-11.66-53.76-16.31c-51.73-13.15-101.7-31.12-147.92-58.79c-8.84-5.29-14.36-8.91-10.37-19.15
			c3.43-8.78,9.55-14.16,19.81-13.31c9.03,0.75,17.12,3.38,22.45,11.17c6.71,9.8,14.79,19.27,26.41,21.2
			c55.46,9.18,107.37,34.67,163.97,37.12c29.16,1.26,52.89,13.02,76.24,27.72c12.66,7.96,20.76,7.42,25.28-8.85
			c3.45-12.42,7.85-24.95,14.13-36.13c8.8-15.67,23.5-21.16,40.86-15.68c17.08,5.4,26.15,22.77,21.84,41.74
			c-4.61,20.36-14.61,38.15-32.89,48.81c-15.99,9.33-24.82,20.39-16.05,38.51c9.12,18.83,0.54,32.13-9.65,47.39
			c-26.28,39.35-32.09,82.92-10.56,125.19c9.4,18.46,0.46,36.09,7.7,53.57c3.39,8.19-9.46,9.53-15.62,7.71
			c-14.1-4.17-19.12-15.88-21.26-29.71c-5.51-35.61-11.66-71.12-17.41-106.7c-0.89-5.54-0.28-12.18-7.19-13.72
			c-6.39-1.43-10.39,3.92-14.53,7.85C439.49,381.61,425.57,413.38,432.69,453.32z"/>
		<path class="st0" d="M727.08,234.6c27.36,1.55,48.81,3.21,67.82,14.72c3.49,2.11,7.89,5.79,8.33,9.2
			c0.86,6.74-5.42,9.14-10.88,10.91c-31.89,10.34-61.9,2.4-91.45-9.65c-5.67-2.31-10.15-6.77-9.8-12.68
			c0.37-6.27,6.01-9.23,12.05-9.97C713.03,235.93,722.96,235.03,727.08,234.6z"/>
	</g>
</g>
</svg>
